{"title":"Wraiths of Roanoke-AC3-XviD-DVDRip 2007 TBS","uid":6114214,"size":1462597785,"categoryP":"video","categoryS":"movies","magnet":"?xt=urn:btih:e284d8fe441f533645c1ab4a729dcef736a32628&amp;dn=Wraiths+of+Roanoke-AC3-XviD-DVDRip+2007+TBS&amp;tr=udp%3A%2F%2Ftracker.openbittorrent.com%3A80&amp;tr=udp%3A%2F%2Fopen.demonii.com%3A1337&amp;tr=udp%3A%2F%2Ftracker.coppersurfer.tk%3A6969&amp;tr=udp%3A%2F%2Fexodus.desync.com%3A6969","seeders":1,"leechers":1,"uploader":"FatFreddy30","files":-1,"time":1295480919,"description":"Aka Lost Colony or Lost Colony: The Legend of Roanoke.\n\nEnglish colonists arriving on Roanoke Island in 1587 find the fort built years before deserted. Soon after members of the colony begin to die in horrible ways. Leader Before returning to England for provisions, John White puts his son-in-law Ananais Dare in charge, and Dare realizes the island is haunted by Norse spirits. Enlisting the aid of a friendly Native American, Dare attempts to free the spirits from their earthly captivity before the entire colony is lost..\n &lt;a href=&quot;\nhttp://www.imdb.com/title/tt0875696/&quot; rel=&quot;nofollow&quot; target=&quot;_NEW&quot;&gt;\nhttp://www.imdb.com/title/tt0875696/&lt;/a&gt;\n\nSubs: Dutch, English (srt).\n\n\nKolonisten op Roanoke eiland, Virginia, worden eind 16de eeuw aangevallen door kwaadaardige geesten, overblijfselen van de Vikingen. De geesten jagen op de eerst-geboren kinderen om zo in het Walhalla te komen. Er wordt geprobeerd om met behulp van een vriendelijke Indiaan de geesten te bevrijden uit hun Aardse gevangenis, voordat de kolonie verloren is.\n &lt;a href=&quot;\nhttp://www.moviemeter.nl/film/49784&quot; rel=&quot;nofollow&quot; target=&quot;_NEW&quot;&gt;\nhttp://www.moviemeter.nl/film/49784&lt;/a&gt;\n\nOndertitels: Engels, Nederlands (srt).\n\n\nGeneral\nComplete name                    : Wraiths of Roanoke-AC3-XviD-DVDRip 2007 TBS\\Wraiths of Roanoke-AC3-XviD-DVDRip 2007 TBS.avi\nFormat                           : AVI\nFormat/Info                      : Audio Video Interleave\nFile size                        : 1.36 GiB\nDuration                         : 1h 27mn\nOverall bit rate                 : 2 227 Kbps\nWriting application              : VirtualDubMod 1.5.4.1 (build 2178/release)\nWriting library                  : VirtualDubMod build 2178/release\n\nVideo\nID                               : 0\nFormat                           : MPEG-4 Visual\nFormat profile                   : Simple@L3\nFormat settings, BVOP            : No\nFormat settings, QPel            : No\nFormat settings, GMC             : No warppoints\nFormat settings, Matrix          : Default (H.263)\nCodec ID                         : XVID\nCodec ID/Hint                    : XviD\nDuration                         : 1h 27mn\nBit rate                         : 2 025 Kbps\nWidth                            : 720 pixels\nHeight                           : 400 pixels\nDisplay aspect ratio             : 16:9\nFrame rate                       : 25.000 fps\nResolution                       : 8 bits\nColorimetry                      : 4:2:0\nScan type                        : Progressive\nBits/(Pixel*Frame)               : 0.281\nStream size                      : 1.24 GiB (91%)\nWriting library                  : XviD 1.1.2 (UTC 2006-11-01)\n\nAudio\nID                               : 1\nFormat                           : AC-3\nFormat/Info                      : Audio Coding 3\nFormat profile                   : Dolby Digital\nCodec ID                         : 2000\nDuration                         : 1h 27mn\nBit rate mode                    : Constant\nBit rate                         : 192 Kbps\nChannel(s)                       : 2 channels\nChannel positions                : L R\nSampling rate                    : 48.0 KHz\nStream size                      : 120 MiB (9%)\nAlignment                        : Split accross interleaves\nInterleave, duration             : 40 ms (1.00 video frame)\nInterleave, preload duration     : 500 ms\n\nThanks to Unholy Ghost &amp; Putteam.\n\nBlackbeard  TBS.","torrent":{"xt":"urn:btih:e284d8fe441f533645c1ab4a729dcef736a32628","amp;dn":"Wraiths+of+Roanoke-AC3-XviD-DVDRip+2007+TBS","amp;tr":["udp%3A%2F%2Ftracker.openbittorrent.com%3A80","udp%3A%2F%2Fopen.demonii.com%3A1337","udp%3A%2F%2Ftracker.coppersurfer.tk%3A6969","udp%3A%2F%2Fexodus.desync.com%3A6969"],"infoHash":"e284d8fe441f533645c1ab4a729dcef736a32628","infoHashBuffer":{"type":"Buffer","data":[226,132,216,254,68,31,83,54,69,193,171,74,114,157,206,247,54,163,38,40]},"announce":[],"urlList":[]}}